<svg xmlns="http://www.w3.org/2000/svg" width="43.182" height="71.232" viewBox="0 0 43.182 71.232">
  <g id="Path_3" data-name="Path 3" transform="translate(-1790.614 -589.943)" fill="#fff">
    <path d="M 1795.963012695312 661.03662109375 C 1794.571411132812 661.03662109375 1793.262939453125 660.4945068359375 1792.278686523438 659.51025390625 C 1791.29443359375 658.5265502929688 1790.75244140625 657.2182006835938 1790.75244140625 655.8263549804688 C 1790.75244140625 654.4345092773438 1791.294555664062 653.1259155273438 1792.278686523438 652.1417236328125 L 1818.761596679688 625.65869140625 L 1818.859375 625.5609741210938 L 1818.761596679688 625.4632568359375 L 1792.278686523438 598.9802856445312 C 1791.29443359375 597.9965209960938 1790.75244140625 596.688232421875 1790.75244140625 595.29638671875 C 1790.75244140625 593.904541015625 1791.294555664062 592.595947265625 1792.278686523438 591.6116943359375 L 1792.281982421875 591.6084594726562 C 1793.266967773438 590.6234741210938 1794.575439453125 590.0814208984375 1795.967041015625 590.0814208984375 C 1797.358642578125 590.0814208984375 1798.667114257812 590.6234741210938 1799.6513671875 591.6077270507812 L 1833.6005859375 625.5570068359375 L 1799.647338867188 659.51025390625 C 1798.6630859375 660.4945068359375 1797.354614257812 661.03662109375 1795.963012695312 661.03662109375 Z" stroke="none"/>
    <path d="M 1795.967041015625 590.2196044921875 C 1794.6123046875 590.2196044921875 1793.338623046875 590.7472534179688 1792.378784179688 591.7070922851562 L 1792.37646484375 591.7093505859375 C 1791.418334960938 592.6675415039062 1790.890625 593.94140625 1790.890625 595.29638671875 C 1790.890625 596.6513061523438 1791.418334960938 597.9249267578125 1792.37646484375 598.8826293945312 L 1819.0546875 625.5609741210938 L 1818.859375 625.75634765625 L 1792.37646484375 652.2393798828125 C 1791.418334960938 653.1975708007812 1790.890625 654.471435546875 1790.890625 655.8263549804688 C 1790.890625 657.1813354492188 1791.418334960938 658.4548950195312 1792.37646484375 659.41259765625 C 1793.334594726562 660.3707275390625 1794.608276367188 660.8984375 1795.963012695312 660.8984375 C 1797.317749023438 660.8984375 1798.591430664062 660.3707275390625 1799.549560546875 659.41259765625 L 1833.4052734375 625.5570068359375 L 1799.553588867188 591.7053833007812 C 1798.595458984375 590.7472534179688 1797.32177734375 590.2196044921875 1795.967041015625 590.2196044921875 M 1795.967041015625 589.9432983398438 C 1797.335815429688 589.9432983398438 1798.704467773438 590.4655151367188 1799.7490234375 591.510009765625 L 1833.796020507812 625.5570068359375 L 1799.744995117188 659.6079711914062 C 1797.655883789062 661.6969604492188 1794.270141601562 661.6969604492188 1792.181030273438 659.6079711914062 C 1790.092041015625 657.52001953125 1790.092041015625 654.1329956054688 1792.181030273438 652.0440063476562 L 1818.663940429688 625.5609741210938 L 1792.181030273438 599.0780029296875 C 1790.092041015625 596.989990234375 1790.092041015625 593.60302734375 1792.181030273438 591.5139770507812 L 1792.18505859375 591.510009765625 C 1793.229614257812 590.4655151367188 1794.598266601562 589.9432983398438 1795.967041015625 589.9432983398438 Z" stroke="none" fill="#b5b5b5"/>
  </g>
</svg>
