<svg xmlns="http://www.w3.org/2000/svg" width="78.735" height="82.102" viewBox="0 0 78.735 82.102">
  <g id="Group_103" data-name="Group 103" transform="translate(-142.114 -98.757)">
    <rect id="Rectangle_153" data-name="Rectangle 153" width="2.239" height="6.396" rx="1.119" transform="translate(176.949 165.12)" fill="#e8801f"/>
    <g id="Group_114" data-name="Group 114" transform="translate(142.114 98.757)">
      <rect id="Rectangle_154" data-name="Rectangle 154" width="10.647" height="4.424" transform="translate(30.571 7.302)" fill="#40bd9e"/>
      <path id="Path_275" data-name="Path 275" d="M227.805,216.447l-2.84-4.018,2.4-1.919,3.056,3.9-1.536,1.151Z" transform="translate(-215.219 -197.365)" fill="#40bd9e"/>
      <path id="Path_276" data-name="Path 276" d="M251.288,198.171l-3.689-3.977-2.239,1.919,3.056,3.9Z" transform="translate(-233.215 -182.967)" fill="#40bd9e"/>
      <g id="Group_104" data-name="Group 104" transform="translate(28.173 0)">
        <g id="Group_103-2" data-name="Group 103">
          <path id="Path_277" data-name="Path 277" d="M396.907,102.754a4,4,0,0,0-3.984-4h-7.33a4,4,0,0,0-3.984,4v1.866h15.3Z" transform="translate(-381.61 -98.757)" fill="#40bd9e"/>
        </g>
      </g>
      <g id="Group_106" data-name="Group 106" transform="translate(53.55 11.006)">
        <g id="Group_105" data-name="Group 105">
          <path id="Path_278" data-name="Path 278" d="M603.544,194.347l-2.425-2.025-3.778,3.743q1.572.886,3.043,1.92Z" transform="translate(-597.341 -192.322)" fill="#40bd9e"/>
          <path id="Path_279" data-name="Path 279" d="M625.687,215.091l3.184-3.633-2.505-1.919-3.16,3.638Q624.489,214.081,625.687,215.091Z" transform="translate(-620.163 -207.515)" fill="#40bd9e"/>
        </g>
      </g>
      <rect id="Rectangle_155" data-name="Rectangle 155" width="15.297" height="5.017" transform="translate(28.173 3.671)" fill="#40bd9e"/>
      <rect id="Rectangle_156" data-name="Rectangle 156" width="1.626" height="5.017" transform="translate(30.571 3.671)" fill="#40bd9e"/>
      <rect id="Rectangle_157" data-name="Rectangle 157" width="1.626" height="5.017" transform="translate(35.115 3.671)" fill="#40bd9e"/>
      <rect id="Rectangle_158" data-name="Rectangle 158" width="1.626" height="5.017" transform="translate(39.592 3.671)" fill="#40bd9e"/>
      <path id="Path_280" data-name="Path 280" d="M146.165,221.421a31.9,31.9,0,0,1,54.714-22.293l2.888-2.84A35.948,35.948,0,1,0,152.5,246.694l2.888-2.84A31.8,31.8,0,0,1,146.165,221.421Z" transform="translate(-142.114 -175.27)" fill="#40bd9e"/>
      <g id="Group_108" data-name="Group 108" transform="translate(10.386 21.018)">
        <g id="Group_107" data-name="Group 107">
          <path id="Path_281" data-name="Path 281" d="M281.669,277.43l-2.888,2.84A31.9,31.9,0,0,1,233.29,325l-2.888,2.84a35.948,35.948,0,0,0,51.267-50.407Z" transform="translate(-230.402 -277.43)" fill="#40bd9e"/>
        </g>
      </g>
      <rect id="Rectangle_159" data-name="Rectangle 159" width="2.239" height="6.396" rx="1.119" transform="translate(17.007 44.852) rotate(90)" fill="#e8801f"/>
      <rect id="Rectangle_160" data-name="Rectangle 160" width="2.239" height="6.396" rx="1.119" transform="translate(23.013 31.941) rotate(132.331)" fill="#52a3b5"/>
      <rect id="Rectangle_161" data-name="Rectangle 161" width="2.239" height="6.396" rx="1.119" transform="matrix(-0.673, 0.739, -0.739, -0.673, 54.406, 63.175)" fill="#52a3b5"/>
      <rect id="Rectangle_162" data-name="Rectangle 162" width="2.239" height="6.396" rx="1.119" transform="translate(21.787 58.796) rotate(45)" fill="#52a3b5"/>
      <rect id="Rectangle_163" data-name="Rectangle 163" width="2.239" height="6.396" rx="1.119" transform="translate(34.835 20.627)" fill="#e8801f"/>
      <rect id="Rectangle_164" data-name="Rectangle 164" width="2.239" height="6.396" rx="1.119" transform="translate(61.618 44.852) rotate(90)" fill="#e8801f"/>
      <rect id="Rectangle_165" data-name="Rectangle 165" width="2.239" height="6.396" rx="1.119" transform="translate(53.148 27.435) rotate(45)" fill="#52a3b5"/>
      <g id="Group_109" data-name="Group 109" transform="translate(38.895 33.325)">
        <path id="Path_282" data-name="Path 282" d="M486.8,382.077l-14.04,7.873a5.929,5.929,0,0,1,2.635,3.546L487.04,382.4A.2.2,0,0,0,486.8,382.077Z" transform="translate(-472.758 -382.049)" fill="#b6c1c1"/>
      </g>
      <g id="Group_111" data-name="Group 111" transform="translate(36.971 29.384)">
        <g id="Group_110" data-name="Group 110">
          <path id="Path_283" data-name="Path 283" d="M472.054,348.6,456.4,359.635a5.926,5.926,0,0,1,4.051,3.007l11.941-13.67A.254.254,0,0,0,472.054,348.6Z" transform="translate(-456.4 -348.548)" fill="#efb313"/>
        </g>
      </g>
      <g id="Group_113" data-name="Group 113" transform="translate(30.032 40.233)">
        <g id="Group_112" data-name="Group 112">
          <path id="Path_284" data-name="Path 284" d="M403.335,440.773a5.919,5.919,0,1,0,5.919,5.919A5.919,5.919,0,0,0,403.335,440.773Zm0,9.91a3.992,3.992,0,1,1,3.992-3.992A3.992,3.992,0,0,1,403.335,450.683Z" transform="translate(-397.416 -440.773)" fill="#40bd9e"/>
        </g>
      </g>
    </g>
    <g id="Group_115" data-name="Group 115" transform="translate(209.124 100.349)">
      <path id="Path_285" data-name="Path 285" d="M723.453,121.161l-.505.464-10.372,9.509-.721.661c-.024.022-.05.044-.075.065l-.017-.013c.017-.032.033-.064.05-.1l1.011-1.8,3.658-6.527a.228.228,0,0,0,.047-.114c-.038-.006-.074-.013-.111-.016l-.623-.047-.643-.052-.583-.045-.7-.056-.6-.046-.673-.054-.633-.049c-.036,0-.074.005-.107-.022a.1.1,0,0,1,.013-.027l10.542-10.6s.011,0,.017,0a.033.033,0,0,1,0,.009.025.025,0,0,1,0,.009l-.01.018-.005.009-.005.008-.01.017-5,8.246-.01.017-.005.009-.005.009,0,.009a.042.042,0,0,0,0,.01.034.034,0,0,0,0,.01.1.1,0,0,0,0,.014.428.428,0,0,0,.126.019l1.087.069,1.238.081.916.06,1.228.081,1.228.081.262.018a.34.34,0,0,1,.037.007C723.495,121.136,723.469,121.146,723.453,121.161Z" transform="translate(-711.763 -112.293)" fill="#e8801f"/>
    </g>
  </g>
</svg>
