<svg xmlns="http://www.w3.org/2000/svg" xmlns:xlink="http://www.w3.org/1999/xlink" width="135" height="134" viewBox="0 0 135 134">
  <defs>
    <filter id="Ellipse_49" x="0" y="0" width="135" height="134" filterUnits="userSpaceOnUse">
      <feOffset dy="3" input="SourceAlpha"/>
      <feGaussianBlur stdDeviation="3" result="blur"/>
      <feFlood flood-opacity="0.161"/>
      <feComposite operator="in" in2="blur"/>
      <feComposite in="SourceGraphic"/>
    </filter>
  </defs>
  <g id="Group_198" data-name="Group 198" transform="translate(8.859 5.969)">
    <g transform="matrix(1, 0, 0, 1, -8.86, -5.97)" filter="url(#Ellipse_49)">
      <ellipse id="Ellipse_49-2" data-name="Ellipse 49" cx="58.5" cy="58" rx="58.5" ry="58" transform="translate(9 6)" fill="#fff"/>
    </g>
    <g id="Group_195" data-name="Group 195" transform="translate(22.414 24.747)">
      <path id="Path_412" data-name="Path 412" d="M3985.447,4057.937l-.171.1v-.355Z" transform="translate(-3917.021 -4004.027)" fill="none"/>
      <path id="Path_413" data-name="Path 413" d="M2826.19,3755.67l-5.948,3.367-4.322,2.446-11.622,3.575c-2.919-.471-20.815-3.342-22.019-3.342-.88,0-3.911-.032-5.423-.05v-10.948h5.192l7.232-7.742,15.4.266a.693.693,0,0,1,.071,0,6.014,6.014,0,0,1,1.729.413,2.237,2.237,0,0,1,1.609,2.049v2.317a.932.932,0,0,1-.931.931l-11.123.513,8.267,7.8h11.86l4.987-2.493a9.19,9.19,0,0,1,2.2-.623,4.965,4.965,0,0,1,1.078-.041,2.931,2.931,0,0,1,.52.093,1.6,1.6,0,0,1,1.011.755l.233.35.171.259Z" transform="translate(-2755.976 -3701.661)" fill="#ffdfcc"/>
      <path id="Path_414" data-name="Path 414" d="M2771.219,4051.674c.481.108,21.98,3.284,21.98,3.284l11.411-2.335,10.855-5.694.45.864-10.645,6.094-11.731,3.523L2771,4054.326l-5.3-.07v-2.642Z" transform="translate(-2745.251 -3993.698)" fill="#ffc9a4"/>
      <rect id="Rectangle_230" data-name="Rectangle 230" width="21.73" height="6.304" transform="translate(18.412 24.748)" fill="#fffcfc"/>
      <rect id="Rectangle_231" data-name="Rectangle 231" width="18.617" height="14.233" transform="translate(1.176 46.006)" fill="#16d391"/>
      <rect id="Rectangle_232" data-name="Rectangle 232" width="18.617" height="6.397" transform="translate(1.176 57.805)" fill="#16d391"/>
      <path id="Path_417" data-name="Path 417" d="M3125.723,2711.59h11.141v13.944l-5.415-1.937-5.755,1.937Z" transform="translate(-3091.138 -2710.708)" fill="#16d391"/>
      <g id="Group_142" data-name="Group 142" transform="translate(33.529 0.882)">
        <path id="Path_418" data-name="Path 418" d="M3111.771,2727l-5.28-2.236a.581.581,0,0,0-.43-.007l-5.772,2.234a.572.572,0,0,1-.779-.534v-14.294a.572.572,0,0,1,.572-.572h.621a.572.572,0,0,1,.572.572v11.721a.573.573,0,0,0,.779.533l4.038-1.563a.571.571,0,0,1,.429.007l3.486,1.476a.572.572,0,0,0,.8-.527v-11.648a.572.572,0,0,1,.571-.572h.62a.572.572,0,0,1,.573.572v14.311A.571.571,0,0,1,3111.771,2727Z" transform="translate(-3099.511 -2711.59)" fill="#191819"/>
      </g>
      <g id="Group_143" data-name="Group 143" transform="translate(0 0)">
        <path id="Path_419" data-name="Path 419" d="M2611,2735.579v47.434a6.833,6.833,0,0,0-1.36.066,10.826,10.826,0,0,0-2.656.763l-.015.007-5.143,2.571H2591.82l-5.971-5.036h9.653a.932.932,0,0,0,.931-.931v-4.12a3.721,3.721,0,0,0-.916-2.4,4.75,4.75,0,0,0-1.775-1.232,7.7,7.7,0,0,0-2.385-.553h-16.081l-7.387,7.477h-4.455v-.092a2.012,2.012,0,0,0-2.012-2.012h-6.7v-41.936a1.489,1.489,0,0,1,1.49-1.489h53.3A1.49,1.49,0,0,1,2611,2735.579Z" transform="translate(-2542.552 -2732.325)" fill="none"/>
        <path id="Path_420" data-name="Path 420" d="M4035.447,4057.937l-.171.1v-.355Z" transform="translate(-3965.061 -4004.027)" fill="none"/>
        <path id="Path_421" data-name="Path 421" d="M2569.532,2692.344v47.9a3.7,3.7,0,0,0-.793-.313,4.783,4.783,0,0,0-.971-.154v-47.433a1.492,1.492,0,0,0-1.49-1.49h-53.3a1.492,1.492,0,0,0-1.49,1.49v41.935h-1.764v-41.935a3.257,3.257,0,0,1,3.254-3.255h53.3A3.257,3.257,0,0,1,2569.532,2692.344Z" transform="translate(-2499.318 -2689.089)" fill="#191819"/>
        <path id="Path_422" data-name="Path 422" d="M2315.72,3717.325a3.252,3.252,0,0,0-1.279-1.237,3.681,3.681,0,0,0-.793-.313,4.8,4.8,0,0,0-.971-.154,6.8,6.8,0,0,0-1.36.066,10.9,10.9,0,0,0-2.656.763l-.015.007-5.124,2.562a.086.086,0,0,1-.04.01h-9.954a.088.088,0,0,1-.059-.022l-5.753-4.853a.092.092,0,0,1,.059-.162h9.311a1.023,1.023,0,0,0,1.023-1.023v-4.028a3.726,3.726,0,0,0-.917-2.405,4.759,4.759,0,0,0-1.775-1.232,7.754,7.754,0,0,0-2.385-.552H2277.7a1.794,1.794,0,0,0-1.277.533l-6.833,6.916a.093.093,0,0,1-.065.027H2265.2a.092.092,0,0,1-.092-.092h0a2.013,2.013,0,0,0-2.012-2.012h-17.986a.882.882,0,0,0-.882.883h0a.882.882,0,0,0,.882.882H2263a.339.339,0,0,1,.339.34v15.785a.339.339,0,0,1-.339.34h-17.895a.882.882,0,0,0-.882.882h0a.882.882,0,0,0,.882.882H2263a2.1,2.1,0,0,0,2.1-2.1v-1.217a.091.091,0,0,1,.092-.091c1.548.018,4.452.048,5.33.048.927.017,13.63,2.014,21.943,3.353l.182.029a.092.092,0,0,0,.042,0l12.167-3.743.018-.007,11.421-6.467a.887.887,0,0,0,.3-1.263Zm-1.279,1.616-5.948,3.367-4.313,2.443-.018.008-11.592,3.565a.082.082,0,0,1-.04,0c-2.981-.479-20.8-3.338-22-3.338-.863,0-3.794-.031-5.333-.049a.091.091,0,0,1-.09-.09v-10.767a.091.091,0,0,1,.092-.091h5.062a.092.092,0,0,0,.065-.027l6.871-6.956a1.667,1.667,0,0,1,1.184-.495h14.548c.028,0,.056,0,.083,0a6.027,6.027,0,0,1,1.721.412,2.238,2.238,0,0,1,1.609,2.049v2.225a1.023,1.023,0,0,1-1.023,1.023H2284a.478.478,0,0,0-.308.844l8.647,7.295a.759.759,0,0,0,.49.179h11.56a.089.089,0,0,0,.041-.009l4.968-2.485a9.17,9.17,0,0,1,2.2-.621,4.8,4.8,0,0,1,1.079-.04,2.836,2.836,0,0,1,.519.092,1.6,1.6,0,0,1,1.013.755l.232.35.117.177a.091.091,0,0,1-.031.13Z" transform="translate(-2244.226 -3664.934)" fill="#191819"/>
      </g>
      <g id="Group_144" data-name="Group 144" transform="translate(17.435 23.583)">
        <path id="Path_423" data-name="Path 423" d="M2710.452,3299.389h-19.227a2.142,2.142,0,0,1-2.266-1.987v-4.764a2.142,2.142,0,0,1,2.266-1.987h19.227a2.142,2.142,0,0,1,2.265,1.987v4.764A2.142,2.142,0,0,1,2710.452,3299.389Zm-19.227-7.191a.475.475,0,0,0-.5.44v4.764a.474.474,0,0,0,.5.44h19.227a.474.474,0,0,0,.5-.44v-4.764a.475.475,0,0,0-.5-.44Z" transform="translate(-2688.959 -3290.652)" fill="#191819"/>
      </g>
    </g>
  </g>
</svg>
