<svg xmlns="http://www.w3.org/2000/svg" xmlns:xlink="http://www.w3.org/1999/xlink" width="134" height="134" viewBox="0 0 134 134">
  <defs>
    <filter id="Ellipse_50" x="0" y="0" width="134" height="134" filterUnits="userSpaceOnUse">
      <feOffset dy="3" input="SourceAlpha"/>
      <feGaussianBlur stdDeviation="3" result="blur"/>
      <feFlood flood-opacity="0.161"/>
      <feComposite operator="in" in2="blur"/>
      <feComposite in="SourceGraphic"/>
    </filter>
  </defs>
  <g id="Group_197" data-name="Group 197" transform="translate(8.556 5.969)">
    <g transform="matrix(1, 0, 0, 1, -8.56, -5.97)" filter="url(#Ellipse_50)">
      <circle id="Ellipse_50-2" data-name="Ellipse 50" cx="58" cy="58" r="58" transform="translate(9 6)" fill="#fff"/>
    </g>
    <g id="Group_194" data-name="Group 194" transform="translate(29.469 24.947)">
      <g id="Group_147" data-name="Group 147" transform="translate(0)">
        <path id="Path_424" data-name="Path 424" d="M6561.268,2700.2h-20.71a3.153,3.153,0,0,1-3.15-3.15v-57.3a3.153,3.153,0,0,1,3.15-3.15h20.71a3.155,3.155,0,0,1,3.149,3.15v57.3A3.155,3.155,0,0,1,6561.268,2700.2Zm-20.71-61.94a1.494,1.494,0,0,0-1.493,1.49v57.3a1.494,1.494,0,0,0,1.493,1.491h20.71a1.494,1.494,0,0,0,1.491-1.491v-57.3a1.494,1.494,0,0,0-1.491-1.49Z" transform="translate(-6537.407 -2636.6)"/>
      </g>
      <g id="Group_149" data-name="Group 149" transform="translate(20.552 62.613)">
        <g id="Group_148" data-name="Group 148" transform="translate(0 0)">
          <rect id="Rectangle_235" data-name="Rectangle 235" width="2.001" height="2.589" rx="1"/>
        </g>
      </g>
      <g id="Group_152" data-name="Group 152" transform="translate(6.008 7.226)">
        <g id="Group_151" data-name="Group 151" transform="translate(0 0)">
          <g id="Group_150" data-name="Group 150">
            <rect id="Rectangle_236" data-name="Rectangle 236" width="14.757" height="1.508" rx="0.754"/>
          </g>
        </g>
      </g>
      <g id="Group_155" data-name="Group 155" transform="translate(6.008 11.227)">
        <g id="Group_154" data-name="Group 154" transform="translate(0 0)">
          <g id="Group_153" data-name="Group 153">
            <rect id="Rectangle_237" data-name="Rectangle 237" width="14.757" height="1.508" rx="0.754"/>
          </g>
        </g>
      </g>
      <g id="Group_157" data-name="Group 157" transform="translate(22.335 25.898)">
        <g id="Group_156" data-name="Group 156" transform="translate(0)">
          <rect id="Rectangle_238" data-name="Rectangle 238" width="1.515" height="8.573" rx="0.758"/>
        </g>
      </g>
      <g id="Group_159" data-name="Group 159" transform="translate(31.905 25.898)">
        <g id="Group_158" data-name="Group 158">
          <rect id="Rectangle_239" data-name="Rectangle 239" width="1.515" height="8.573" rx="0.758"/>
        </g>
      </g>
      <g id="Group_161" data-name="Group 161" transform="translate(33.042 62.613)">
        <g id="Group_160" data-name="Group 160" transform="translate(0 0)">
          <rect id="Rectangle_240" data-name="Rectangle 240" width="2.001" height="2.589" rx="1" transform="translate(2.001 2.589) rotate(-180)"/>
        </g>
      </g>
      <g id="Group_163" data-name="Group 163" transform="translate(49.134 62.613)">
        <g id="Group_162" data-name="Group 162" transform="translate(0 0)">
          <rect id="Rectangle_241" data-name="Rectangle 241" width="2.001" height="2.589" rx="1" transform="translate(2.001 2.589) rotate(-180)"/>
        </g>
      </g>
      <g id="Group_166" data-name="Group 166" transform="translate(34.828 7.226)">
        <g id="Group_165" data-name="Group 165" transform="translate(0 0)">
          <g id="Group_164" data-name="Group 164">
            <rect id="Rectangle_242" data-name="Rectangle 242" width="14.757" height="1.508" rx="0.754" transform="translate(14.757 1.508) rotate(-180)"/>
          </g>
        </g>
      </g>
      <g id="Group_168" data-name="Group 168" transform="translate(34.828 11.227)">
        <g id="Group_167" data-name="Group 167" transform="translate(0 0)">
          <rect id="Rectangle_243" data-name="Rectangle 243" width="14.757" height="1.508" rx="0.754" transform="translate(14.757 1.508) rotate(-180)"/>
        </g>
      </g>
      <g id="Group_169" data-name="Group 169" transform="translate(28.582)">
        <path id="Path_426" data-name="Path 426" d="M7336.375,2700.2h-20.71a3.154,3.154,0,0,1-3.15-3.15v-57.3a3.154,3.154,0,0,1,3.15-3.15h20.71a3.154,3.154,0,0,1,3.152,3.15v57.3A3.154,3.154,0,0,1,7336.375,2700.2Zm-20.71-61.94a1.493,1.493,0,0,0-1.491,1.49v57.3a1.493,1.493,0,0,0,1.491,1.491h20.71a1.492,1.492,0,0,0,1.491-1.491v-57.3a1.492,1.492,0,0,0-1.491-1.49Z" transform="translate(-7312.515 -2636.6)"/>
      </g>
      <g id="Group_193" data-name="Group 193" transform="translate(32.089 29.332)">
        <g id="Group_171" data-name="Group 171" transform="translate(0.912 1.308)">
          <g id="Group_170" data-name="Group 170">
            <circle id="Ellipse_47" data-name="Ellipse 47" cx="16.222" cy="16.222" r="16.222" fill="#fffcfc"/>
          </g>
        </g>
        <g id="Group_189" data-name="Group 189" transform="translate(10.127 7.081)">
          <g id="Group_176" data-name="Group 176" transform="translate(5.254 8.461)">
            <g id="Group_175" data-name="Group 175">
              <path id="Path_428" data-name="Path 428" d="M7828.22,3853.495a2.142,2.142,0,0,1-3.5,0Z" transform="translate(-7824.716 -3853.495)" fill="none"/>
            </g>
          </g>
          <g id="Group_178" data-name="Group 178" transform="translate(4.862 1.997)">
            <g id="Group_177" data-name="Group 177">
              <path id="Path_429" data-name="Path 429" d="M7818.362,3680.336v2.7h-4.291v-2.7a2.145,2.145,0,1,1,4.291,0Z" transform="translate(-7814.072 -3678.191)" fill="none"/>
            </g>
          </g>
          <g id="Group_180" data-name="Group 180" transform="translate(1.617 8.462)">
            <g id="Group_179" data-name="Group 179">
              <path id="Path_430" data-name="Path 430" d="M7736.849,3854.975v7.107a1.461,1.461,0,0,1-1.461,1.46h-7.857a1.462,1.462,0,0,1-1.461-1.46v-7.107a1.464,1.464,0,0,1,1.438-1.46,4.142,4.142,0,0,0,7.906,0A1.463,1.463,0,0,1,7736.849,3854.975Z" transform="translate(-7726.068 -3853.515)" fill="none"/>
            </g>
          </g>
          <g id="Group_182" data-name="Group 182" transform="translate(1.617 8.461)" opacity="0.6">
            <g id="Group_181" data-name="Group 181">
              <path id="Path_431" data-name="Path 431" d="M7736.849,3862.062a1.462,1.462,0,0,1-1.461,1.462h-7.857a1.463,1.463,0,0,1-1.461-1.462v-7.106a1.463,1.463,0,0,1,1.438-1.46h7.906a1.462,1.462,0,0,1,1.436,1.46Z" transform="translate(-7726.068 -3853.495)" fill="#16d391"/>
            </g>
          </g>
          <g id="Group_184" data-name="Group 184" transform="translate(2.865)">
            <g id="Group_183" data-name="Group 183">
              <path id="Path_432" data-name="Path 432" d="M7768.212,3628.19v2.711c-.073,0-.143-.008-.213-.008h-1.785v-2.7a2.146,2.146,0,0,0-4.291,0v2.7h-1.784c-.071,0-.142,0-.211.008v-2.711a4.142,4.142,0,0,1,8.285,0Z" transform="translate(-7759.928 -3624.049)"/>
            </g>
          </g>
          <g id="Group_186" data-name="Group 186" transform="translate(10.227 7.859)">
            <g id="Group_185" data-name="Group 185">
              <rect id="Rectangle_244" data-name="Rectangle 244" width="2.724" height="11.105" fill="#16d391"/>
            </g>
          </g>
          <g id="Group_188" data-name="Group 188" transform="translate(0 6.844)">
            <g id="Group_187" data-name="Group 187">
              <path id="Path_433" data-name="Path 433" d="M7693.375,3809.668c-.07,0-.142-.008-.214-.008H7685.3c-.07,0-.144,0-.211.008a3.08,3.08,0,0,0-2.866,3.069v7.107a3.081,3.081,0,0,0,3.077,3.079h7.858a3.082,3.082,0,0,0,3.078-3.079v-7.107A3.08,3.08,0,0,0,7693.375,3809.668Zm1.248,10.176a1.464,1.464,0,0,1-1.462,1.461H7685.3a1.462,1.462,0,0,1-1.461-1.461v-7.107a1.464,1.464,0,0,1,1.437-1.46h7.907a1.464,1.464,0,0,1,1.438,1.46Z" transform="translate(-7682.226 -3809.66)"/>
            </g>
          </g>
        </g>
        <g id="Group_192" data-name="Group 192" transform="translate(0 0)">
          <g id="Group_191" data-name="Group 191">
            <g id="Group_190" data-name="Group 190">
              <path id="Path_434" data-name="Path 434" d="M7438.7,3441.414h0a.948.948,0,0,0-.245,1.14,15.1,15.1,0,0,1,1.489,6.058,15.226,15.226,0,1,1-15.215-14.677,15.1,15.1,0,0,1,8.941,2.9.953.953,0,0,0,1.175-.041h0a.951.951,0,0,0-.051-1.5,17.1,17.1,0,1,0,5.722,7.2q-.163-.385-.344-.761A.952.952,0,0,0,7438.7,3441.414Z" transform="translate(-7407.595 -3432.029)"/>
            </g>
          </g>
        </g>
      </g>
    </g>
  </g>
</svg>
