<svg xmlns="http://www.w3.org/2000/svg" xmlns:xlink="http://www.w3.org/1999/xlink" width="125" height="125" viewBox="0 0 125 125">
  <defs>
    <filter id="Ellipse_48" x="0" y="0" width="125" height="125" filterUnits="userSpaceOnUse">
      <feOffset dy="3" input="SourceAlpha"/>
      <feGaussianBlur stdDeviation="1.5" result="blur"/>
      <feFlood flood-opacity="0.122"/>
      <feComposite operator="in" in2="blur"/>
      <feComposite in="SourceGraphic"/>
    </filter>
  </defs>
  <g id="Group_199" data-name="Group 199" transform="translate(4.596 1.469)">
    <g transform="matrix(1, 0, 0, 1, -4.6, -1.47)" filter="url(#Ellipse_48)">
      <circle id="Ellipse_48-2" data-name="Ellipse 48" cx="58" cy="58" r="58" transform="translate(4.5 1.5)" fill="#fff"/>
    </g>
    <g id="Group_196" data-name="Group 196" transform="translate(30.469 24.747)">
      <g id="Group_139" data-name="Group 139" transform="translate(9.025 16.649)">
        <path id="Path_399" data-name="Path 399" d="M845.836,3578.58v-3.523a14.233,14.233,0,0,1-8.273-.764,18.848,18.848,0,0,0-3.886-1.05,10.216,10.216,0,0,0-3.651.22,27.17,27.17,0,0,0-6.834,2.74,13.714,13.714,0,0,0,25.385,5.429l-.95-.387A2.881,2.881,0,0,1,845.836,3578.58Z" transform="translate(-817.589 -3555.475)" fill="#16d391"/>
        <path id="Path_402" data-name="Path 402" d="M786.428,3584.315l-.519-.821a14.886,14.886,0,0,0,14.833,13.663c.4,0,.8-.022,1.2-.054a17.281,17.281,0,0,1-7.81-14.834c0-.411.013-.819.039-1.221A28.583,28.583,0,0,0,786.428,3584.315Z" transform="translate(-781.734 -3563.058)" fill="#16d391"/>
        <path id="Path_403" data-name="Path 403" d="M804.927,3230.326l-.331-.133-1.087-.445a1.138,1.138,0,0,1-.63-.64.725.725,0,0,1-.027-.079,1.146,1.146,0,0,1-.049-.334v-7.5a1.135,1.135,0,0,1,.684-1.041l1.257-.546.1-.044a1.567,1.567,0,0,0,.753-2.191l-.01-.015a15.366,15.366,0,0,0-28.852,7.126c0,.3,0,.6.012.9a.21.21,0,0,0,0,.04,15.363,15.363,0,0,0,28.664,6.963c.05-.084.1-.171.146-.257A1.285,1.285,0,0,0,804.927,3230.326Zm-26.449-6.255c.008-.155.017-.31.032-.466,0-.091.015-.18.024-.272s.017-.17.027-.254.02-.158.032-.237q.026-.2.059-.394c.018-.1.035-.2.055-.3s.039-.21.064-.314.045-.207.072-.309.049-.2.076-.306c.052-.206.112-.405.178-.605a13.681,13.681,0,0,1,8.265-8.679c.1-.04.195-.074.3-.106q.3-.108.6-.193c.1-.033.2-.063.3-.087s.19-.052.284-.074q.174-.041.348-.079c.1-.023.2-.045.294-.062s.173-.035.261-.049c.148-.025.3-.05.45-.07.079-.012.16-.022.239-.031.027,0,.052-.007.079-.011.178-.019.356-.036.534-.051.119-.01.24-.017.358-.022a13.606,13.606,0,0,1,4.807.617c.146.045.289.094.432.146a13.128,13.128,0,0,1,1.653.712c.264.135.524.281.78.434a13.564,13.564,0,0,1,1.808,1.292c.227.193.447.39.659.6a13.665,13.665,0,0,1,2.443,3.154l-1.193.516a2.868,2.868,0,0,0-1.727,2.629v2.244a12.539,12.539,0,0,1-7.642-.637,20.6,20.6,0,0,0-4.192-1.126c-3.759-.563-8.326,1.448-10.772,2.731,0,.1,0,.208,0,.314,0-.1,0-.208,0-.312S778.473,3224.188,778.478,3224.071Zm13.624,14.3a13.562,13.562,0,0,1-5.609-1.207c-.2-.089-.4-.186-.6-.287a13.678,13.678,0,0,1-7.341-10.54c1.974-1.1,6.79-3.489,10.429-2.944a18.95,18.95,0,0,1,3.863,1.045,14.127,14.127,0,0,0,8.225.761v3.5a2.883,2.883,0,0,0,.375,1.421,3.2,3.2,0,0,0,.368.508,2.926,2.926,0,0,0,1.04.723l.944.385A13.641,13.641,0,0,1,792.1,3238.368Z" transform="translate(-772.911 -3205.606)"/>
        <rect id="Rectangle_226" data-name="Rectangle 226" width="1.97" height="7.417" rx="0.985" transform="translate(32.263 15.678)"/>
        <path id="Path_404" data-name="Path 404" d="M696.913,3111.394a19.317,19.317,0,0,0-20,17.129.831.831,0,0,0,.828.918h0a.906.906,0,0,0,.9-.8,17.564,17.564,0,1,1,.024,4.269.829.829,0,0,0-.824-.723h-.147a.76.76,0,0,0-.755.85,19.293,19.293,0,1,0,19.976-21.639Z" transform="translate(-676.904 -3111.377)"/>
      </g>
      <path id="Path_405" data-name="Path 405" d="M471.642,4013.578h-9.156a.852.852,0,0,1-.839-.865h0a.851.851,0,0,1,.839-.864h9.156a.851.851,0,0,1,.839.864h0A.852.852,0,0,1,471.642,4013.578Z" transform="translate(-460.868 -3960.709)"/>
      <path id="Path_406" data-name="Path 406" d="M1633.931,4013.578h-8.17a.828.828,0,0,1-.785-.865h0a.827.827,0,0,1,.785-.864h8.17a.826.826,0,0,1,.783.864h0A.827.827,0,0,1,1633.931,4013.578Z" transform="translate(-1579.638 -3960.709)"/>
      <rect id="Rectangle_227" data-name="Rectangle 227" width="41.62" height="1.729" rx="0.864" transform="translate(13.542 12.471)"/>
      <rect id="Rectangle_228" data-name="Rectangle 228" width="53.926" height="1.729" transform="translate(1.236 59.516)"/>
      <path id="Path_407" data-name="Path 407" d="M491.182,2741.923H447.435a6.146,6.146,0,0,1-6.14-6.139v-52.923a6.146,6.146,0,0,1,6.14-6.139h43.747a6.146,6.146,0,0,1,6.139,6.139v52.923A6.146,6.146,0,0,1,491.182,2741.923Zm-43.747-63.473a4.416,4.416,0,0,0-4.41,4.411v52.923a4.416,4.416,0,0,0,4.41,4.411h43.747a4.416,4.416,0,0,0,4.411-4.411v-52.923a4.416,4.416,0,0,0-4.411-4.411Z" transform="translate(-441.295 -2676.721)"/>
      <g id="Group_140" data-name="Group 140" transform="translate(0.856 12.471)">
        <path id="Path_408" data-name="Path 408" d="M470.967,3002.3h-7.33v1.729h7.33a.865.865,0,0,0,0-1.729Z" transform="translate(-463.637 -3002.305)"/>
      </g>
      <g id="Group_141" data-name="Group 141" transform="translate(4.883 4.033)">
        <path id="Path_409" data-name="Path 409" d="M574.481,2782.03h-3.6a2.1,2.1,0,0,0-2.1,2.1v1.8a2.1,2.1,0,0,0,2.1,2.1h3.6a2.1,2.1,0,0,0,2.1-2.1v-1.8A2.1,2.1,0,0,0,574.481,2782.03Zm.361,4.169h-4.317v-2.35h4.317Z" transform="translate(-568.789 -2782.03)"/>
      </g>
      <path id="Path_410" data-name="Path 410" d="M1350.282,2781.771a3.361,3.361,0,1,1,3.361-3.361A3.365,3.365,0,0,1,1350.282,2781.771Zm0-4.994a1.632,1.632,0,1,0,1.633,1.632A1.634,1.634,0,0,0,1350.282,2776.778Z" transform="translate(-1312.232 -2771.282)"/>
      <path id="Path_411" data-name="Path 411" d="M1606.061,2781.771a3.361,3.361,0,1,1,3.362-3.361A3.365,3.365,0,0,1,1606.061,2781.771Zm0-4.994a1.632,1.632,0,1,0,1.632,1.632A1.634,1.634,0,0,0,1606.061,2776.778Z" transform="translate(-1558.215 -2771.282)"/>
    </g>
  </g>
</svg>
